<svg width="70" height="70" viewBox="0 0 70 70" fill="none" xmlns="http://www.w3.org/2000/svg">
<path d="M58.3333 55.4166V30.625C58.3333 30.1722 58.2279 29.7256 58.0254 29.3206C57.8229 28.9156 57.5289 28.5633 57.1667 28.2916L36.75 12.9791C36.2451 12.6005 35.6311 12.3958 35 12.3958C34.3689 12.3958 33.7549 12.6005 33.25 12.9791L12.8333 28.2916C12.4711 28.5633 12.1771 28.9156 11.9746 29.3206C11.7721 29.7256 11.6667 30.1722 11.6667 30.625V55.4166C11.6667 56.1902 11.9739 56.9321 12.5209 57.479C13.0679 58.026 13.8098 58.3333 14.5833 58.3333H26.25C27.0235 58.3333 27.7654 58.026 28.3124 57.479C28.8594 56.9321 29.1667 56.1902 29.1667 55.4166V46.6666C29.1667 45.8931 29.4739 45.1512 30.0209 44.6043C30.5679 44.0573 31.3098 43.75 32.0833 43.75H37.9167C38.6902 43.75 39.4321 44.0573 39.9791 44.6043C40.526 45.1512 40.8333 45.8931 40.8333 46.6666V55.4166C40.8333 56.1902 41.1406 56.9321 41.6876 57.479C42.2346 58.026 42.9764 58.3333 43.75 58.3333H55.4167C56.1902 58.3333 56.9321 58.026 57.4791 57.479C58.026 56.9321 58.3333 56.1902 58.3333 55.4166Z" fill="black" stroke="black" stroke-width="2" stroke-linecap="round" stroke-linejoin="round"/>
</svg>
