<svg width="211" height="173" viewBox="0 0 211 173" fill="none" xmlns="http://www.w3.org/2000/svg">
<path d="M21.75 172.75C15.8375 172.75 10.7743 170.97 6.56027 167.409C2.34627 163.848 0.242852 159.573 0.250018 154.583V27.4167C0.250018 22.4208 2.35702 18.1426 6.57102 14.5819C10.785 11.0212 15.8447 9.24394 21.75 9.25H75.5V27.4167H21.75V154.583H172.25V105.987L193.75 124.154V154.583C193.75 159.579 191.643 163.857 187.429 167.418C183.215 170.979 178.155 172.756 172.25 172.75H21.75ZM192.138 97.3583L166.338 75.5583C162.575 77.6778 158.544 79.2674 154.244 80.3271C149.944 81.3868 145.375 81.9167 140.538 81.9167C127.279 81.9167 115.992 77.9412 106.675 69.9902C97.3583 62.0393 92.7 52.3898 92.7 41.0417C92.7 29.6875 97.4049 20.0349 106.815 12.084C116.225 4.13305 127.645 0.160608 141.075 0.166663C154.513 0.166663 165.936 4.14213 175.346 12.0931C184.756 20.044 189.457 29.6936 189.45 41.0417C189.45 45.1292 188.733 49.0653 187.3 52.85C185.867 56.6347 184.075 60.1167 181.925 63.2958L207.188 84.6417C209.158 86.3069 210.144 88.4264 210.144 91C210.144 93.5736 209.158 95.693 207.188 97.3583C205.217 99.0236 202.708 99.8562 199.662 99.8562C196.617 99.8562 194.108 99.0236 192.138 97.3583ZM141.075 63.75C148.6 63.75 154.96 61.5549 160.156 57.1646C165.352 52.7743 167.95 47.4 167.95 41.0417C167.95 34.6833 165.352 29.309 160.156 24.9187C154.96 20.5285 148.6 18.3333 141.075 18.3333C133.55 18.3333 127.19 20.5285 121.994 24.9187C116.798 29.309 114.2 34.6833 114.2 41.0417C114.2 47.4 116.798 52.7743 121.994 57.1646C127.19 61.5549 133.55 63.75 141.075 63.75ZM43.25 136.417C41.1 136.417 39.4875 135.584 38.4125 133.919C37.3375 132.253 37.5167 130.664 38.95 129.15L60.45 104.852C61.525 103.641 62.9583 103.035 64.75 103.035C66.5417 103.035 67.975 103.641 69.05 104.852L88.9375 127.333L116.888 95.7687C117.963 94.5576 119.396 93.9521 121.188 93.9521C122.979 93.9521 124.413 94.5576 125.488 95.7687L155.05 129.15C156.483 130.664 156.663 132.253 155.588 133.919C154.513 135.584 152.9 136.417 150.75 136.417H43.25Z" fill="#1B1B1B" fill-opacity="0.28"/>
</svg>
